<svg width="92" height="30" viewBox="0 0 92 30" fill="none" xmlns="http://www.w3.org/2000/svg">
<path d="M16.9051 16.18C16.9051 16.596 16.9691 16.996 17.0971 17.38C17.2331 17.756 17.4251 18.092 17.6731 18.388C17.9211 18.676 18.2211 18.908 18.5731 19.084C18.9251 19.252 19.3251 19.336 19.7731 19.336C20.1731 19.336 20.5331 19.284 20.8531 19.18C21.1731 19.068 21.4491 18.916 21.6811 18.724C21.9211 18.532 22.1131 18.308 22.2571 18.052C22.4011 17.796 22.4971 17.52 22.5451 17.224H19.7491V15.844H24.1411V16.144C24.1411 16.808 24.0371 17.416 23.8291 17.968C23.6291 18.52 23.3411 19 22.9651 19.408C22.5891 19.808 22.1251 20.12 21.5731 20.344C21.0291 20.568 20.4171 20.68 19.7371 20.68C19.0891 20.68 18.4971 20.564 17.9611 20.332C17.4331 20.1 16.9771 19.78 16.5931 19.372C16.2091 18.964 15.9131 18.488 15.7051 17.944C15.4971 17.392 15.3931 16.804 15.3931 16.18C15.3931 15.556 15.4971 14.972 15.7051 14.428C15.9131 13.876 16.2091 13.396 16.5931 12.988C16.9771 12.58 17.4411 12.26 17.9851 12.028C18.5291 11.796 19.1331 11.68 19.7971 11.68C20.3651 11.68 20.8771 11.764 21.3331 11.932C21.7891 12.1 22.1851 12.324 22.5211 12.604C22.8571 12.884 23.1291 13.208 23.3371 13.576C23.5531 13.944 23.7051 14.332 23.7931 14.74H22.1491C22.0851 14.492 21.9771 14.264 21.8251 14.056C21.6811 13.84 21.5051 13.656 21.2971 13.504C21.0971 13.352 20.8691 13.236 20.6131 13.156C20.3571 13.068 20.0851 13.024 19.7971 13.024C19.3331 13.024 18.9211 13.112 18.5611 13.288C18.2011 13.456 17.8971 13.688 17.6491 13.984C17.4091 14.272 17.2251 14.608 17.0971 14.992C16.9691 15.368 16.9051 15.764 16.9051 16.18ZM31.0362 18.628C30.9802 18.884 30.8802 19.136 30.7362 19.384C30.5922 19.624 30.4002 19.84 30.1602 20.032C29.9202 20.224 29.6362 20.38 29.3082 20.5C28.9802 20.62 28.6002 20.68 28.1682 20.68C27.6802 20.68 27.2402 20.6 26.8482 20.44C26.4642 20.28 26.1362 20.052 25.8642 19.756C25.6002 19.46 25.3962 19.112 25.2522 18.712C25.1082 18.304 25.0362 17.852 25.0362 17.356C25.0362 16.9 25.1082 16.476 25.2522 16.084C25.3962 15.692 25.6002 15.352 25.8642 15.064C26.1282 14.776 26.4482 14.552 26.8242 14.392C27.2002 14.224 27.6242 14.14 28.0962 14.14C28.5282 14.14 28.9242 14.216 29.2842 14.368C29.6522 14.512 29.9682 14.72 30.2322 14.992C30.4962 15.264 30.7002 15.592 30.8442 15.976C30.9962 16.36 31.0722 16.788 31.0722 17.26V17.992H26.4282C26.4442 18.192 26.4922 18.384 26.5722 18.568C26.6602 18.744 26.7802 18.9 26.9322 19.036C27.0842 19.172 27.2642 19.28 27.4722 19.36C27.6802 19.44 27.9122 19.48 28.1682 19.48C28.6082 19.48 28.9362 19.4 29.1522 19.24C29.3762 19.072 29.5322 18.868 29.6202 18.628H31.0362ZM28.1082 15.34C27.8442 15.34 27.6082 15.384 27.4002 15.472C27.2002 15.552 27.0322 15.664 26.8962 15.808C26.7602 15.944 26.6522 16.104 26.5722 16.288C26.4922 16.464 26.4442 16.648 26.4282 16.84H29.7762C29.7602 16.648 29.7122 16.464 29.6322 16.288C29.5602 16.104 29.4522 15.944 29.3082 15.808C29.1722 15.664 29.0042 15.552 28.8042 15.472C28.6042 15.384 28.3722 15.34 28.1082 15.34ZM33.9311 14.32H35.0951V15.556H33.9311V18.784C33.9311 18.984 33.9671 19.12 34.0391 19.192C34.1191 19.264 34.2631 19.3 34.4711 19.3H35.0951V20.5H33.9911C33.7431 20.5 33.5271 20.484 33.3431 20.452C33.1671 20.412 33.0231 20.344 32.9111 20.248C32.7991 20.152 32.7151 20.02 32.6591 19.852C32.6031 19.676 32.5751 19.452 32.5751 19.18V15.556H31.6151V14.32H32.5751V12.568H33.9311V14.32ZM42.2255 19.336C42.8015 19.336 43.2295 19.228 43.5095 19.012C43.7895 18.788 43.9295 18.492 43.9295 18.124C43.9295 17.892 43.8895 17.708 43.8095 17.572C43.7295 17.428 43.6175 17.308 43.4735 17.212C43.4015 17.164 43.3255 17.12 43.2455 17.08C43.1655 17.04 43.0695 17.004 42.9575 16.972C42.8455 16.932 42.7055 16.892 42.5375 16.852C42.3775 16.812 42.1775 16.772 41.9375 16.732C41.5775 16.668 41.2295 16.584 40.8935 16.48C40.5655 16.376 40.2895 16.244 40.0655 16.084C39.7935 15.9 39.5775 15.644 39.4175 15.316C39.2575 14.988 39.1775 14.596 39.1775 14.14C39.1775 13.804 39.2415 13.488 39.3695 13.192C39.5055 12.896 39.7015 12.636 39.9575 12.412C40.2135 12.188 40.5255 12.012 40.8935 11.884C41.2615 11.748 41.6855 11.68 42.1655 11.68C42.6535 11.68 43.0815 11.744 43.4495 11.872C43.8255 12 44.1415 12.184 44.3975 12.424C44.6535 12.656 44.8495 12.936 44.9855 13.264C45.1215 13.592 45.2015 13.956 45.2255 14.356H43.7975C43.7735 14.164 43.7255 13.988 43.6535 13.828C43.5895 13.668 43.4895 13.528 43.3535 13.408C43.2255 13.288 43.0615 13.196 42.8615 13.132C42.6695 13.06 42.4375 13.024 42.1655 13.024C41.8855 13.024 41.6495 13.06 41.4575 13.132C41.2735 13.204 41.1215 13.296 41.0015 13.408C40.8895 13.512 40.8055 13.632 40.7495 13.768C40.7015 13.896 40.6775 14.02 40.6775 14.14C40.6775 14.356 40.7175 14.532 40.7975 14.668C40.8775 14.804 41.0055 14.924 41.1815 15.028C41.2695 15.076 41.3535 15.12 41.4335 15.16C41.5135 15.2 41.6015 15.236 41.6975 15.268C41.8015 15.3 41.9175 15.332 42.0455 15.364C42.1815 15.388 42.3455 15.416 42.5375 15.448C43.0895 15.544 43.5335 15.66 43.8695 15.796C44.2055 15.924 44.4655 16.064 44.6495 16.216C44.8975 16.424 45.0895 16.68 45.2255 16.984C45.3615 17.28 45.4295 17.66 45.4295 18.124C45.4295 18.508 45.3535 18.856 45.2015 19.168C45.0495 19.48 44.8335 19.748 44.5535 19.972C44.2815 20.196 43.9455 20.372 43.5455 20.5C43.1535 20.62 42.7135 20.68 42.2255 20.68C41.7295 20.68 41.2815 20.616 40.8815 20.488C40.4895 20.36 40.1495 20.176 39.8615 19.936C39.5815 19.696 39.3615 19.404 39.2015 19.06C39.0495 18.708 38.9615 18.308 38.9375 17.86H40.3655C40.4055 18.34 40.5775 18.708 40.8815 18.964C41.1935 19.212 41.6415 19.336 42.2255 19.336ZM48.3452 14.32H49.5092V15.556H48.3452V18.784C48.3452 18.984 48.3812 19.12 48.4532 19.192C48.5332 19.264 48.6772 19.3 48.8852 19.3H49.5092V20.5H48.4052C48.1572 20.5 47.9412 20.484 47.7572 20.452C47.5812 20.412 47.4372 20.344 47.3252 20.248C47.2132 20.152 47.1292 20.02 47.0732 19.852C47.0172 19.676 46.9892 19.452 46.9892 19.18V15.556H46.0292V14.32H46.9892V12.568H48.3452V14.32ZM54.4061 20.08C54.3501 20.128 54.2701 20.184 54.1661 20.248C54.0701 20.304 53.9421 20.36 53.7821 20.416C53.6301 20.464 53.4501 20.508 53.2421 20.548C53.0341 20.588 52.7981 20.608 52.5341 20.608C51.8301 20.608 51.2701 20.428 50.8541 20.068C50.4381 19.708 50.2301 19.208 50.2301 18.568C50.2301 18.256 50.2901 17.976 50.4101 17.728C50.5301 17.472 50.7021 17.26 50.9261 17.092C51.1501 16.916 51.4141 16.784 51.7181 16.696C52.0301 16.6 52.3741 16.552 52.7501 16.552C53.0781 16.552 53.3661 16.584 53.6141 16.648C53.8701 16.704 54.0901 16.78 54.2741 16.876L54.2621 16.384C54.2541 16.048 54.1421 15.784 53.9261 15.592C53.7181 15.4 53.3981 15.304 52.9661 15.304C52.7261 15.304 52.5261 15.336 52.3661 15.4C52.2141 15.464 52.0901 15.544 51.9941 15.64C51.8981 15.728 51.8261 15.828 51.7781 15.94C51.7381 16.052 51.7101 16.156 51.6941 16.252H50.4221C50.4381 15.964 50.5061 15.692 50.6261 15.436C50.7461 15.18 50.9141 14.956 51.1301 14.764C51.3461 14.572 51.6101 14.42 51.9221 14.308C52.2341 14.196 52.5901 14.14 52.9901 14.14C53.3501 14.14 53.6861 14.188 53.9981 14.284C54.3101 14.372 54.5821 14.512 54.8141 14.704C55.0461 14.896 55.2261 15.144 55.3541 15.448C55.4901 15.752 55.5581 16.112 55.5581 16.528V20.5H54.5021L54.4061 20.08ZM52.9421 17.608C52.5821 17.608 52.2701 17.684 52.0061 17.836C51.7421 17.988 51.6101 18.236 51.6101 18.58C51.6101 18.756 51.6461 18.908 51.7181 19.036C51.7901 19.156 51.8861 19.256 52.0061 19.336C52.1261 19.408 52.2661 19.464 52.4261 19.504C52.5861 19.536 52.7581 19.552 52.9421 19.552C53.1181 19.552 53.2861 19.536 53.4461 19.504C53.6061 19.464 53.7461 19.408 53.8661 19.336C53.9861 19.256 54.0821 19.156 54.1541 19.036C54.2261 18.908 54.2621 18.756 54.2621 18.58C54.2621 18.22 54.1301 17.968 53.8661 17.824C53.6101 17.68 53.3021 17.608 52.9421 17.608ZM56.9417 20.5V14.32H58.2857V15.328C58.3417 15.208 58.4257 15.084 58.5377 14.956C58.6577 14.82 58.8057 14.696 58.9817 14.584C59.1577 14.472 59.3617 14.38 59.5937 14.308C59.8337 14.228 60.1057 14.184 60.4097 14.176V15.652C59.9937 15.652 59.6497 15.692 59.3777 15.772C59.1137 15.852 58.9017 15.968 58.7417 16.12C58.5897 16.264 58.4817 16.444 58.4177 16.66C58.3617 16.868 58.3337 17.104 58.3337 17.368V20.5H56.9417ZM62.9702 14.32H64.1342V15.556H62.9702V18.784C62.9702 18.984 63.0062 19.12 63.0782 19.192C63.1582 19.264 63.3022 19.3 63.5102 19.3H64.1342V20.5H63.0302C62.7822 20.5 62.5662 20.484 62.3822 20.452C62.2062 20.412 62.0622 20.344 61.9502 20.248C61.8382 20.152 61.7542 20.02 61.6982 19.852C61.6422 19.676 61.6142 19.452 61.6142 19.18V15.556H60.6542V14.32H61.6142V12.568H62.9702V14.32ZM70.8565 18.628C70.8005 18.884 70.7005 19.136 70.5565 19.384C70.4125 19.624 70.2205 19.84 69.9805 20.032C69.7405 20.224 69.4565 20.38 69.1285 20.5C68.8005 20.62 68.4205 20.68 67.9885 20.68C67.5005 20.68 67.0605 20.6 66.6685 20.44C66.2845 20.28 65.9565 20.052 65.6845 19.756C65.4205 19.46 65.2165 19.112 65.0725 18.712C64.9285 18.304 64.8565 17.852 64.8565 17.356C64.8565 16.9 64.9285 16.476 65.0725 16.084C65.2165 15.692 65.4205 15.352 65.6845 15.064C65.9485 14.776 66.2685 14.552 66.6445 14.392C67.0205 14.224 67.4445 14.14 67.9165 14.14C68.3485 14.14 68.7445 14.216 69.1045 14.368C69.4725 14.512 69.7885 14.72 70.0525 14.992C70.3165 15.264 70.5205 15.592 70.6645 15.976C70.8165 16.36 70.8925 16.788 70.8925 17.26V17.992H66.2485C66.2645 18.192 66.3125 18.384 66.3925 18.568C66.4805 18.744 66.6005 18.9 66.7525 19.036C66.9045 19.172 67.0845 19.28 67.2925 19.36C67.5005 19.44 67.7325 19.48 67.9885 19.48C68.4285 19.48 68.7565 19.4 68.9725 19.24C69.1965 19.072 69.3525 18.868 69.4405 18.628H70.8565ZM67.9285 15.34C67.6645 15.34 67.4285 15.384 67.2205 15.472C67.0205 15.552 66.8525 15.664 66.7165 15.808C66.5805 15.944 66.4725 16.104 66.3925 16.288C66.3125 16.464 66.2645 16.648 66.2485 16.84H69.5965C69.5805 16.648 69.5325 16.464 69.4525 16.288C69.3805 16.104 69.2725 15.944 69.1285 15.808C68.9925 15.664 68.8245 15.552 68.6245 15.472C68.4245 15.384 68.1925 15.34 67.9285 15.34ZM76.702 19.78C76.638 19.876 76.546 19.976 76.426 20.08C76.306 20.184 76.162 20.284 75.994 20.38C75.826 20.468 75.638 20.54 75.43 20.596C75.222 20.652 74.998 20.68 74.758 20.68C74.334 20.68 73.942 20.6 73.582 20.44C73.222 20.272 72.91 20.04 72.646 19.744C72.382 19.448 72.174 19.104 72.022 18.712C71.87 18.312 71.794 17.876 71.794 17.404C71.794 16.94 71.87 16.508 72.022 16.108C72.174 15.708 72.382 15.364 72.646 15.076C72.91 14.78 73.222 14.552 73.582 14.392C73.942 14.224 74.334 14.14 74.758 14.14C74.998 14.14 75.218 14.168 75.418 14.224C75.626 14.272 75.81 14.34 75.97 14.428C76.138 14.508 76.278 14.6 76.39 14.704C76.51 14.8 76.602 14.892 76.666 14.98V11.86H78.046V20.5H76.702V19.78ZM74.974 19.36C75.222 19.36 75.45 19.312 75.658 19.216C75.874 19.12 76.058 18.988 76.21 18.82C76.37 18.644 76.494 18.436 76.582 18.196C76.67 17.956 76.714 17.692 76.714 17.404C76.714 17.116 76.67 16.856 76.582 16.624C76.494 16.384 76.37 16.18 76.21 16.012C76.058 15.836 75.874 15.7 75.658 15.604C75.45 15.508 75.222 15.46 74.974 15.46C74.718 15.46 74.482 15.508 74.266 15.604C74.058 15.7 73.874 15.836 73.714 16.012C73.562 16.18 73.442 16.384 73.354 16.624C73.266 16.856 73.222 17.116 73.222 17.404C73.222 17.692 73.266 17.956 73.354 18.196C73.442 18.436 73.562 18.644 73.714 18.82C73.874 18.988 74.058 19.12 74.266 19.216C74.482 19.312 74.718 19.36 74.974 19.36Z" fill="#48BC25"/>
<rect x="1" y="1" width="90" height="28" rx="3" stroke="#48BC25" stroke-width="2"/>
</svg>
