<svg width="32" height="32" viewBox="0 0 32 32" fill="none" xmlns="http://www.w3.org/2000/svg">
<path d="M13.9004 27.691C13.3073 27.8439 12.6763 27.9437 12.0074 27.9776C5.19271 28.3343 1.10388 24.36 1.00292 20.4875C0.901965 16.6151 3.41331 13.0866 8.91557 7.227C8.91557 7.227 7.31916 4.47553 5.44511 2.5011C5.35046 2.10621 5.74799 0.259162 9.73586 1.32918C13.7237 2.39919 15.1372 1.68585 15.1372 1.68585C15.1372 1.68585 15.5284 3.25266 12.3482 7.227C12.3482 7.227 18.2185 13.2925 20 16.7743" stroke="#194C57" stroke-width="2" stroke-linecap="round" stroke-linejoin="round"/>
<path d="M8 8H13" stroke="#194C57" stroke-width="2" stroke-linecap="round" stroke-linejoin="round"/>
<path d="M13 17.1124V16.6775C13 15.7502 12.2645 15 11.3553 15H10.6447C9.73548 15 9 15.7502 9 16.6775C9 17.6049 9.73548 18.355 10.6447 18.355H11.3553C12.2645 18.355 13 19.1052 13 20.0325V20.3225C13 21.2498 12.2645 22 11.3553 22H10.6447C9.73548 22 9 21.2498 9 20.3225V19.7219" stroke="#194C57" stroke-width="2" stroke-linecap="round" stroke-linejoin="round"/>
<path d="M11 22V23" stroke="#194C57" stroke-width="2" stroke-linecap="round" stroke-linejoin="round"/>
<path d="M11 15V13" stroke="#194C57" stroke-width="2" stroke-linecap="round" stroke-linejoin="round"/>
<path d="M19.5 24C21.9853 24 24 23.1046 24 22C24 20.8954 21.9853 20 19.5 20C17.0147 20 15 20.8954 15 22C15 23.1046 17.0147 24 19.5 24Z" stroke="#194C57" stroke-width="2" stroke-linecap="round" stroke-linejoin="round"/>
<path d="M24 26C24 27.1039 21.9844 28 19.5 28C17.0156 28 15 27.1039 15 26" stroke="#194C57" stroke-width="2" stroke-linecap="round" stroke-linejoin="round"/>
<path d="M24 22V28.8246C24 30.0254 21.9844 31 19.5 31C17.0156 31 15 30.0254 15 28.8246V22" stroke="#194C57" stroke-width="2" stroke-linecap="round" stroke-linejoin="round"/>
<path d="M25 17C27.7614 17 30 16.1046 30 15C30 13.8954 27.7614 13 25 13C22.2386 13 20 13.8954 20 15C20 16.1046 22.2386 17 25 17Z" stroke="#194C57" stroke-width="2" stroke-linecap="round" stroke-linejoin="round"/>
<path d="M30 19C30 19.552 27.7604 20 25 20C22.2396 20 20 19.552 20 19" stroke="#194C57" stroke-width="2" stroke-linecap="round" stroke-linejoin="round"/>
<path d="M30 22C30 23.1039 27.8648 24 25.2331 24C24.8069 24 24.3931 23.9765 24 23.9333" stroke="#194C57" stroke-width="2" stroke-linecap="round" stroke-linejoin="round"/>
<path d="M20 20V15" stroke="#194C57" stroke-width="2" stroke-linecap="round" stroke-linejoin="round"/>
<path d="M30 15V25.7973C30 27.0131 27.8648 28 25.2331 28C24.8069 28 24.3931 27.9741 24 27.9266" stroke="#194C57" stroke-width="2" stroke-linecap="round" stroke-linejoin="round"/>
</svg>
