<svg width="30" height="30" viewBox="0 0 30 30" fill="none" xmlns="http://www.w3.org/2000/svg">
<path d="M15.0004 17.5926C19.8686 17.5926 23.8152 13.8782 23.8152 9.2963C23.8152 4.71438 19.8686 1 15.0004 1C10.1321 1 6.18555 4.71438 6.18555 9.2963C6.18555 13.8782 10.1321 17.5926 15.0004 17.5926Z" stroke="#194C57" stroke-width="2" stroke-miterlimit="10" stroke-linecap="round" stroke-linejoin="round"/>
<path d="M17.5923 7.54263L14.5576 9.29617L11.3701 6.18506" stroke="#194C57" stroke-width="2" stroke-miterlimit="10" stroke-linecap="round" stroke-linejoin="round"/>
<path d="M17.1473 29C17.1473 29 17.327 27.9426 16.9855 26.9041C16.6439 25.8655 16.2635 23.7617 16.8956 22.5233C17.9741 20.4085 20.4368 20.1441 21.6412 18.6335C22.8455 17.1229 23.7833 15.2488 25.2752 15.5509C26.162 15.7303 26.1321 17.8876 24.8947 19.2377C23.5286 20.7295 22.468 22.2212 22.2164 22.8632" stroke="#194C57" stroke-width="2" stroke-miterlimit="10" stroke-linecap="round" stroke-linejoin="round"/>
<path d="M25.994 16.5461C25.994 16.5461 26.3572 15.6592 26.2404 14.1119C26.1578 13.019 25.6568 10.4889 26.3961 9.62085C27.1354 8.75285 28.3611 9.56424 28.7308 12.8098C29.1004 16.0554 29.3339 18.9991 27.7191 21.4899C26.1043 23.9807 22.7773 26.1696 22.7773 29.0001" stroke="#194C57" stroke-width="2" stroke-miterlimit="10" stroke-linecap="round" stroke-linejoin="round"/>
<path d="M12.8531 29C12.8531 29 12.6733 27.9426 13.0149 26.9041C13.3564 25.8655 13.7369 23.7617 13.1047 22.5233C12.0262 20.4085 9.56354 20.1441 8.35917 18.6335C7.1548 17.1229 6.21708 15.2488 4.7251 15.5509C3.8383 15.7303 3.86826 17.8876 5.10558 19.2377C6.47173 20.7295 7.53229 22.2212 7.78395 22.8632" stroke="#194C57" stroke-width="2" stroke-miterlimit="10" stroke-linecap="round" stroke-linejoin="round"/>
<path d="M4.00556 16.546C4.00556 16.546 3.64239 15.6591 3.75912 14.1118C3.84181 13.0189 4.34279 10.4888 3.60348 9.62079C2.86416 8.75278 1.63846 9.56418 1.2688 12.8098C0.899147 16.0554 0.66568 18.9991 2.2805 21.4899C3.89531 23.9807 7.22222 26.1696 7.22222 29" stroke="#194C57" stroke-width="2" stroke-miterlimit="10" stroke-linecap="round" stroke-linejoin="round"/>
</svg>
