<svg width="30" height="19" viewBox="0 0 30 19" fill="none" xmlns="http://www.w3.org/2000/svg">
<path d="M5.79845 1H24.2027C24.7317 1 25.2391 1.21034 25.6132 1.58476C25.9873 1.95917 26.1974 2.46699 26.1974 2.99649V15.5242H3.80371V2.99649C3.80371 2.46699 4.01387 1.95917 4.38796 1.58476C4.76204 1.21034 5.26941 1 5.79845 1V1Z" stroke="#194C57" stroke-width="2" stroke-linecap="round" stroke-linejoin="round"/>
<path d="M1 15.5244H29C29 16.181 28.7394 16.8107 28.2755 17.275C27.8116 17.7393 27.1825 18.0002 26.5264 18.0002H3.47358C2.81755 18.0002 2.18838 17.7393 1.72449 17.275C1.26061 16.8107 1 16.181 1 15.5244H1Z" stroke="#194C57" stroke-width="2" stroke-linecap="round" stroke-linejoin="round"/>
<path d="M17.689 15.8047H12.2969" stroke="#194C57" stroke-width="2" stroke-linecap="round" stroke-linejoin="round"/>
</svg>
