<svg width="96" height="48" viewBox="0 0 96 48" fill="none" xmlns="http://www.w3.org/2000/svg">
<rect width="96" height="48" rx="8" fill="#48BC25"/>
<path d="M32.828 26.836C33.404 26.836 33.832 26.728 34.112 26.512C34.392 26.288 34.532 25.992 34.532 25.624C34.532 25.392 34.492 25.208 34.412 25.072C34.332 24.928 34.22 24.808 34.076 24.712C34.004 24.664 33.928 24.62 33.848 24.58C33.768 24.54 33.672 24.504 33.56 24.472C33.448 24.432 33.308 24.392 33.14 24.352C32.98 24.312 32.78 24.272 32.54 24.232C32.18 24.168 31.832 24.084 31.496 23.98C31.168 23.876 30.892 23.744 30.668 23.584C30.396 23.4 30.18 23.144 30.02 22.816C29.86 22.488 29.78 22.096 29.78 21.64C29.78 21.304 29.844 20.988 29.972 20.692C30.108 20.396 30.304 20.136 30.56 19.912C30.816 19.688 31.128 19.512 31.496 19.384C31.864 19.248 32.288 19.18 32.768 19.18C33.256 19.18 33.684 19.244 34.052 19.372C34.428 19.5 34.744 19.684 35 19.924C35.256 20.156 35.452 20.436 35.588 20.764C35.724 21.092 35.804 21.456 35.828 21.856H34.4C34.376 21.664 34.328 21.488 34.256 21.328C34.192 21.168 34.092 21.028 33.956 20.908C33.828 20.788 33.664 20.696 33.464 20.632C33.272 20.56 33.04 20.524 32.768 20.524C32.488 20.524 32.252 20.56 32.06 20.632C31.876 20.704 31.724 20.796 31.604 20.908C31.492 21.012 31.408 21.132 31.352 21.268C31.304 21.396 31.28 21.52 31.28 21.64C31.28 21.856 31.32 22.032 31.4 22.168C31.48 22.304 31.608 22.424 31.784 22.528C31.872 22.576 31.956 22.62 32.036 22.66C32.116 22.7 32.204 22.736 32.3 22.768C32.404 22.8 32.52 22.832 32.648 22.864C32.784 22.888 32.948 22.916 33.14 22.948C33.692 23.044 34.136 23.16 34.472 23.296C34.808 23.424 35.068 23.564 35.252 23.716C35.5 23.924 35.692 24.18 35.828 24.484C35.964 24.78 36.032 25.16 36.032 25.624C36.032 26.008 35.956 26.356 35.804 26.668C35.652 26.98 35.436 27.248 35.156 27.472C34.884 27.696 34.548 27.872 34.148 28C33.756 28.12 33.316 28.18 32.828 28.18C32.332 28.18 31.884 28.116 31.484 27.988C31.092 27.86 30.752 27.676 30.464 27.436C30.184 27.196 29.964 26.904 29.804 26.56C29.652 26.208 29.564 25.808 29.54 25.36H30.968C31.008 25.84 31.18 26.208 31.484 26.464C31.796 26.712 32.244 26.836 32.828 26.836ZM42.9317 26.128C42.8757 26.384 42.7757 26.636 42.6317 26.884C42.4877 27.124 42.2957 27.34 42.0557 27.532C41.8157 27.724 41.5317 27.88 41.2037 28C40.8757 28.12 40.4957 28.18 40.0637 28.18C39.5757 28.18 39.1357 28.1 38.7437 27.94C38.3597 27.78 38.0317 27.552 37.7597 27.256C37.4957 26.96 37.2917 26.612 37.1477 26.212C37.0037 25.804 36.9317 25.352 36.9317 24.856C36.9317 24.4 37.0037 23.976 37.1477 23.584C37.2917 23.192 37.4957 22.852 37.7597 22.564C38.0237 22.276 38.3437 22.052 38.7197 21.892C39.0957 21.724 39.5197 21.64 39.9917 21.64C40.4237 21.64 40.8197 21.716 41.1797 21.868C41.5477 22.012 41.8637 22.22 42.1277 22.492C42.3917 22.764 42.5957 23.092 42.7397 23.476C42.8917 23.86 42.9677 24.288 42.9677 24.76V25.492H38.3237C38.3397 25.692 38.3877 25.884 38.4677 26.068C38.5557 26.244 38.6757 26.4 38.8277 26.536C38.9797 26.672 39.1597 26.78 39.3677 26.86C39.5757 26.94 39.8077 26.98 40.0637 26.98C40.5037 26.98 40.8317 26.9 41.0477 26.74C41.2717 26.572 41.4277 26.368 41.5157 26.128H42.9317ZM40.0037 22.84C39.7397 22.84 39.5037 22.884 39.2957 22.972C39.0957 23.052 38.9277 23.164 38.7917 23.308C38.6557 23.444 38.5477 23.604 38.4677 23.788C38.3877 23.964 38.3397 24.148 38.3237 24.34H41.6717C41.6557 24.148 41.6077 23.964 41.5277 23.788C41.4557 23.604 41.3477 23.444 41.2037 23.308C41.0677 23.164 40.8997 23.052 40.6997 22.972C40.4997 22.884 40.2677 22.84 40.0037 22.84ZM47.9266 27.58C47.8706 27.628 47.7906 27.684 47.6866 27.748C47.5906 27.804 47.4626 27.86 47.3026 27.916C47.1506 27.964 46.9706 28.008 46.7626 28.048C46.5546 28.088 46.3186 28.108 46.0546 28.108C45.3506 28.108 44.7906 27.928 44.3746 27.568C43.9586 27.208 43.7506 26.708 43.7506 26.068C43.7506 25.756 43.8106 25.476 43.9306 25.228C44.0506 24.972 44.2226 24.76 44.4466 24.592C44.6706 24.416 44.9346 24.284 45.2386 24.196C45.5506 24.1 45.8946 24.052 46.2706 24.052C46.5986 24.052 46.8866 24.084 47.1346 24.148C47.3906 24.204 47.6106 24.28 47.7946 24.376L47.7826 23.884C47.7746 23.548 47.6626 23.284 47.4466 23.092C47.2386 22.9 46.9186 22.804 46.4866 22.804C46.2466 22.804 46.0466 22.836 45.8866 22.9C45.7346 22.964 45.6106 23.044 45.5146 23.14C45.4186 23.228 45.3466 23.328 45.2986 23.44C45.2586 23.552 45.2306 23.656 45.2146 23.752H43.9426C43.9586 23.464 44.0266 23.192 44.1466 22.936C44.2666 22.68 44.4346 22.456 44.6506 22.264C44.8666 22.072 45.1306 21.92 45.4426 21.808C45.7546 21.696 46.1106 21.64 46.5106 21.64C46.8706 21.64 47.2066 21.688 47.5186 21.784C47.8306 21.872 48.1026 22.012 48.3346 22.204C48.5666 22.396 48.7466 22.644 48.8746 22.948C49.0106 23.252 49.0786 23.612 49.0786 24.028V28H48.0226L47.9266 27.58ZM46.4626 25.108C46.1026 25.108 45.7906 25.184 45.5266 25.336C45.2626 25.488 45.1306 25.736 45.1306 26.08C45.1306 26.256 45.1666 26.408 45.2386 26.536C45.3106 26.656 45.4066 26.756 45.5266 26.836C45.6466 26.908 45.7866 26.964 45.9466 27.004C46.1066 27.036 46.2786 27.052 46.4626 27.052C46.6386 27.052 46.8066 27.036 46.9666 27.004C47.1266 26.964 47.2666 26.908 47.3866 26.836C47.5066 26.756 47.6026 26.656 47.6746 26.536C47.7466 26.408 47.7826 26.256 47.7826 26.08C47.7826 25.72 47.6506 25.468 47.3866 25.324C47.1306 25.18 46.8226 25.108 46.4626 25.108ZM50.4622 28V21.82H51.8062V22.828C51.8622 22.708 51.9462 22.584 52.0582 22.456C52.1782 22.32 52.3262 22.196 52.5022 22.084C52.6782 21.972 52.8822 21.88 53.1142 21.808C53.3542 21.728 53.6262 21.684 53.9302 21.676V23.152C53.5142 23.152 53.1702 23.192 52.8982 23.272C52.6342 23.352 52.4222 23.468 52.2622 23.62C52.1102 23.764 52.0022 23.944 51.9382 24.16C51.8822 24.368 51.8542 24.604 51.8542 24.868V28H50.4622ZM59.0015 24.088C58.9695 23.944 58.9175 23.804 58.8455 23.668C58.7735 23.524 58.6775 23.4 58.5575 23.296C58.4375 23.184 58.2895 23.096 58.1135 23.032C57.9455 22.96 57.7455 22.924 57.5135 22.924C57.2495 22.924 57.0095 22.976 56.7935 23.08C56.5775 23.184 56.3935 23.324 56.2415 23.5C56.0895 23.676 55.9735 23.888 55.8935 24.136C55.8135 24.376 55.7735 24.632 55.7735 24.904C55.7735 25.176 55.8135 25.436 55.8935 25.684C55.9735 25.924 56.0895 26.136 56.2415 26.32C56.3935 26.496 56.5735 26.636 56.7815 26.74C56.9975 26.844 57.2375 26.896 57.5015 26.896C57.7575 26.896 57.9735 26.864 58.1495 26.8C58.3335 26.728 58.4895 26.64 58.6175 26.536C58.7455 26.432 58.8455 26.316 58.9175 26.188C58.9895 26.06 59.0455 25.94 59.0855 25.828H60.5135C60.4735 26.132 60.3815 26.424 60.2375 26.704C60.0935 26.984 59.8935 27.236 59.6375 27.46C59.3895 27.676 59.0855 27.852 58.7255 27.988C58.3735 28.116 57.9655 28.18 57.5015 28.18C57.0455 28.18 56.6255 28.1 56.2415 27.94C55.8575 27.78 55.5255 27.556 55.2455 27.268C54.9655 26.98 54.7455 26.636 54.5855 26.236C54.4335 25.836 54.3575 25.392 54.3575 24.904C54.3575 24.424 54.4335 23.984 54.5855 23.584C54.7455 23.184 54.9655 22.84 55.2455 22.552C55.5255 22.264 55.8575 22.04 56.2415 21.88C56.6335 21.72 57.0575 21.64 57.5135 21.64C57.9775 21.64 58.3815 21.716 58.7255 21.868C59.0775 22.012 59.3735 22.204 59.6135 22.444C59.8535 22.676 60.0375 22.936 60.1655 23.224C60.3015 23.512 60.3895 23.8 60.4295 24.088H59.0015ZM62.975 28H61.595V19.36H62.975V22.324C63.015 22.276 63.075 22.216 63.155 22.144C63.243 22.064 63.351 21.988 63.479 21.916C63.615 21.836 63.771 21.772 63.947 21.724C64.123 21.668 64.319 21.64 64.535 21.64C64.831 21.64 65.119 21.692 65.399 21.796C65.687 21.892 65.943 22.044 66.167 22.252C66.399 22.46 66.583 22.724 66.719 23.044C66.863 23.356 66.935 23.724 66.935 24.148V28H65.555V24.568C65.555 24.04 65.443 23.64 65.219 23.368C65.003 23.088 64.687 22.948 64.271 22.948C63.879 22.948 63.563 23.088 63.323 23.368C63.091 23.64 62.975 24.04 62.975 24.568V28Z" fill="white"/>
</svg>
