<svg width="47" height="16" viewBox="0 0 47 16" fill="none" xmlns="http://www.w3.org/2000/svg">
<path d="M39.3562 1.9929C39.4517 1.9927 39.5463 2.01142 39.6345 2.04798C39.7227 2.08453 39.8028 2.13821 39.8702 2.2059L45.1292 7.4649C45.2652 7.60119 45.3416 7.78586 45.3416 7.9784C45.3416 8.17093 45.2652 8.3556 45.1292 8.4919L39.5072 14.1149C39.4398 14.1826 39.3597 14.2363 39.2715 14.2728C39.1833 14.3094 39.0887 14.3281 38.9932 14.3279C38.8977 14.3282 38.8031 14.3095 38.7148 14.2729C38.6266 14.2363 38.5465 14.1826 38.4792 14.1149L33.2192 8.8549C33.0832 8.71861 33.0068 8.53393 33.0068 8.3414C33.0068 8.14886 33.0832 7.96419 33.2192 7.8279L38.8422 2.2059C38.9093 2.13824 38.9893 2.08458 39.0773 2.04801C39.1654 2.01145 39.2598 1.99272 39.3552 1.9929H39.3562ZM24.7952 3.2829C24.8463 3.28281 24.8969 3.29283 24.9441 3.3124C24.9913 3.33196 25.0341 3.36068 25.0702 3.3969L29.4092 7.7349C29.4454 7.77097 29.474 7.81384 29.4936 7.86103C29.5132 7.90822 29.5232 7.95881 29.5232 8.0099C29.5233 8.06099 29.5133 8.1116 29.4937 8.1588C29.4741 8.206 29.4454 8.24886 29.4092 8.2849L24.7722 12.9229C24.736 12.9592 24.6929 12.9879 24.6456 13.0075C24.5982 13.0271 24.5475 13.0371 24.4962 13.0369C24.3931 13.0369 24.2941 12.9959 24.2212 12.9229L19.8832 8.5849C19.8104 8.51165 19.7697 8.41262 19.7697 8.3094C19.7697 8.20618 19.8104 8.10714 19.8832 8.0339L24.5212 3.3959C24.5941 3.32294 24.693 3.28194 24.7962 3.2819L24.7952 3.2829ZM12.9802 4.72389C13.0313 4.7238 13.0819 4.73383 13.1291 4.7534C13.1763 4.77296 13.2191 4.80169 13.2552 4.8379L16.3002 7.8829C16.3731 7.95602 16.4141 8.05509 16.4141 8.1584C16.4141 8.2617 16.3731 8.36078 16.3002 8.4339L13.2552 11.4789C13.2191 11.5151 13.1762 11.5438 13.129 11.5633C13.0818 11.5829 13.0312 11.5929 12.9802 11.5929C12.9291 11.5929 12.8785 11.5829 12.8313 11.5633C12.7841 11.5438 12.7413 11.5151 12.7052 11.4789L9.66016 8.4339C9.6239 8.39776 9.59519 8.35482 9.57556 8.30755C9.55593 8.26027 9.54584 8.20958 9.54584 8.1584C9.54584 8.10721 9.55593 8.05653 9.57556 8.00925C9.59519 7.96197 9.6239 7.91904 9.66016 7.8829L12.7052 4.8379C12.7412 4.80169 12.7841 4.77296 12.8313 4.7534C12.8785 4.73383 12.9291 4.7238 12.9802 4.72389ZM4.00519 5.8239C4.05643 5.82384 4.10718 5.83387 4.15454 5.85343C4.2019 5.87299 4.24493 5.9017 4.28119 5.9379L6.2262 7.8829C6.26241 7.91894 6.2911 7.9618 6.31067 8.009C6.33024 8.0562 6.3403 8.1068 6.34021 8.1579C6.34018 8.26105 6.29916 8.35997 6.2262 8.4329L4.28119 10.3779C4.24499 10.4142 4.20197 10.4429 4.1546 10.4625C4.10723 10.4821 4.05644 10.4921 4.00519 10.4919C3.9541 10.4919 3.90351 10.4819 3.85632 10.4623C3.80913 10.4428 3.76624 10.4141 3.73016 10.3779L1.78516 8.4329C1.7489 8.39676 1.72019 8.35382 1.70056 8.30655C1.68094 8.25927 1.67084 8.20858 1.67084 8.1574C1.67084 8.10621 1.68094 8.05553 1.70056 8.00825C1.72019 7.96097 1.7489 7.91804 1.78516 7.8819L3.73016 5.9369C3.80309 5.86394 3.90203 5.82293 4.00519 5.8229V5.8239ZM39.3562 0.795901C39.1036 0.795512 38.8534 0.845049 38.62 0.941668C38.3866 1.03829 38.1746 1.18008 37.9962 1.3589L32.3732 6.9809C32.1945 7.15947 32.0529 7.37149 31.9562 7.60485C31.8595 7.8382 31.8097 8.08831 31.8097 8.3409C31.8097 8.59349 31.8595 8.8436 31.9562 9.07695C32.0529 9.3103 32.1945 9.52232 32.3732 9.7009L37.6332 14.9609C37.8116 15.1398 38.0236 15.2816 38.257 15.3782C38.4904 15.4748 38.7406 15.5243 38.9932 15.5239C39.2458 15.5243 39.496 15.4748 39.7294 15.3782C39.9628 15.2816 40.1748 15.1398 40.3532 14.9609L45.9752 9.3389C46.1538 9.16032 46.2955 8.9483 46.3922 8.71495C46.4889 8.4816 46.5386 8.23149 46.5386 7.9789C46.5386 7.72631 46.4889 7.4762 46.3922 7.24285C46.2955 7.00949 46.1538 6.79747 45.9752 6.6189L40.7162 1.3599C40.5377 1.18112 40.3257 1.03936 40.0923 0.942744C39.859 0.846128 39.6088 0.796566 39.3562 0.7969V0.795901ZM24.7962 2.08589C24.588 2.08578 24.3819 2.1267 24.1895 2.20632C23.9972 2.28593 23.8224 2.40269 23.6752 2.5499L19.0382 7.1879C18.8909 7.33517 18.774 7.51002 18.6943 7.70244C18.6146 7.89487 18.5736 8.10111 18.5736 8.3094C18.5736 8.51768 18.6146 8.72393 18.6943 8.91635C18.774 9.10878 18.8909 9.28362 19.0382 9.4309L23.3762 13.7689C23.5233 13.9162 23.6981 14.033 23.8904 14.1126C24.0828 14.1923 24.289 14.2331 24.4972 14.2329C24.7056 14.2334 24.912 14.1926 25.1046 14.113C25.2971 14.0333 25.472 13.9164 25.6192 13.7689L30.2572 9.1309C30.4045 8.98362 30.5213 8.80878 30.601 8.61635C30.6807 8.42392 30.7217 8.21768 30.7217 8.0094C30.7217 7.80111 30.6807 7.59487 30.601 7.40244C30.5213 7.21001 30.4045 7.03517 30.2572 6.8879L25.9192 2.5459C25.7719 2.39853 25.597 2.28168 25.4044 2.20205C25.2119 2.12243 25.0055 2.08159 24.7972 2.0819L24.7962 2.08589ZM12.9802 3.5279C12.7719 3.52775 12.5657 3.56875 12.3733 3.64855C12.1809 3.72835 12.0062 3.84538 11.8592 3.9929L8.81421 7.0379C8.66693 7.18517 8.55005 7.36002 8.47034 7.55244C8.39063 7.74487 8.34961 7.95112 8.34961 8.1594C8.34961 8.36768 8.39063 8.57392 8.47034 8.76635C8.55005 8.95878 8.66693 9.13362 8.81421 9.2809L11.8592 12.3259C12.0063 12.4733 12.181 12.5902 12.3734 12.6698C12.5657 12.7494 12.772 12.7902 12.9802 12.7899C13.1885 12.7903 13.3949 12.7494 13.5875 12.6698C13.78 12.5902 13.9549 12.4733 14.1022 12.3259L17.1472 9.2809C17.2945 9.13362 17.4113 8.95878 17.491 8.76635C17.5707 8.57392 17.6118 8.36768 17.6118 8.1594C17.6118 7.95112 17.5707 7.74487 17.491 7.55244C17.4113 7.36002 17.2945 7.18517 17.1472 7.0379L14.1022 3.9929C13.955 3.8453 13.7801 3.72823 13.5876 3.64843C13.395 3.56863 13.1886 3.52767 12.9802 3.5279ZM4.00519 4.6279C3.79684 4.62765 3.59048 4.6685 3.39795 4.74813C3.20542 4.82775 3.03049 4.94457 2.88318 5.0919L0.938171 7.0369C0.790889 7.18417 0.674069 7.35902 0.59436 7.55144C0.514651 7.74387 0.473633 7.95011 0.473633 8.1584C0.473633 8.36668 0.514651 8.57293 0.59436 8.76535C0.674069 8.95778 0.790889 9.13262 0.938171 9.2799L2.88318 11.2249C3.03039 11.3724 3.20533 11.4893 3.39789 11.5689C3.59044 11.6485 3.79682 11.6893 4.00519 11.6889C4.2134 11.6893 4.41961 11.6485 4.612 11.5689C4.80439 11.4892 4.97913 11.3723 5.12616 11.2249L7.0722 9.2799C7.36941 8.98233 7.53632 8.57896 7.53632 8.1584C7.53632 7.73783 7.36941 7.33446 7.0722 7.0369L5.12616 5.0919C4.97906 4.94455 4.80431 4.82771 4.61194 4.74809C4.41957 4.66846 4.21339 4.62762 4.00519 4.6279Z" fill="url(#paint0_linear_3_1589)"/>
<defs>
<linearGradient id="paint0_linear_3_1589" x1="11.6674" y1="20.0012" x2="14.3222" y2="-6.01729" gradientUnits="userSpaceOnUse">
<stop stop-color="#29ABE2"/>
<stop offset="0.11" stop-color="#379DE3"/>
<stop offset="0.518" stop-color="#6A6DE8"/>
<stop offset="0.828" stop-color="#8950EA"/>
<stop offset="1" stop-color="#9545EC"/>
</linearGradient>
</defs>
</svg>
