<svg width="94" height="15" viewBox="0 0 94 15" fill="none" xmlns="http://www.w3.org/2000/svg">
<path d="M0.918091 0.931641H9.78711V2.43164H2.59912V6.79764H9.64508V8.29764H2.59912V12.9676H9.78711V14.4676H0.913086L0.918091 0.931641Z" fill="#232323"/>
<path d="M11.658 0.931641H13.3441V12.9726H19.6351V14.4726H11.655L11.658 0.931641Z" fill="#232323"/>
<path d="M21.2012 0.931641H30.0752V2.43164H22.8871V6.79764H29.9362V8.29764H22.8912V12.9676H30.0792V14.4676H21.2051L21.2012 0.931641Z" fill="#232323"/>
<path d="M31.3921 7.71396C31.3586 6.79339 31.5136 5.87569 31.8475 5.01717C32.1815 4.15865 32.6873 3.3774 33.3339 2.72137C33.9806 2.06533 34.7545 1.54834 35.6082 1.20212C36.4618 0.855893 37.3771 0.687737 38.2981 0.707962C39.3201 0.682384 40.3322 0.914466 41.2409 1.38282C42.1497 1.85118 42.9259 2.54074 43.4981 3.38796L42.0771 4.18096C41.653 3.5724 41.088 3.07542 40.4304 2.7324C39.7727 2.38937 39.0419 2.21048 38.3001 2.21096C37.5943 2.21392 36.8965 2.36082 36.2493 2.64268C35.6022 2.92454 35.0194 3.33544 34.5365 3.85025C34.0536 4.36506 33.6808 4.97296 33.4409 5.63678C33.2009 6.3006 33.099 7.00638 33.1411 7.71096C33.1004 8.41521 33.2034 9.12038 33.4439 9.78356C33.6843 10.4467 34.0572 11.0541 34.5398 11.5686C35.0224 12.0831 35.6047 12.494 36.2511 12.7764C36.8976 13.0587 37.5947 13.2066 38.3001 13.211C39.0427 13.216 39.7752 13.039 40.4336 12.6956C41.092 12.3522 41.6563 11.8528 42.0771 11.241L43.5181 12.034C42.9399 12.8792 42.1601 13.567 41.2492 14.035C40.3382 14.5029 39.325 14.7363 38.3011 14.714C37.3804 14.7346 36.4652 14.5669 35.6116 14.2212C34.7581 13.8755 33.9841 13.3592 33.3372 12.7037C32.6903 12.0483 32.1841 11.2676 31.8496 10.4096C31.5151 9.55159 31.3595 8.63429 31.3921 7.71396Z" fill="#232323"/>
<path d="M48.2029 2.43555H43.9189V0.935547H54.194V2.43555H49.894V14.4765H48.2079L48.2029 2.43555Z" fill="#232323"/>
<path d="M60.0002 9.09348H57.3002V14.4745H55.6143V0.93148H61.0573C61.6115 0.888956 62.1686 0.964065 62.6918 1.15188C63.2151 1.3397 63.6927 1.63598 64.0934 2.02131C64.4941 2.40664 64.8089 2.87231 65.017 3.3878C65.2252 3.90328 65.3221 4.45694 65.3013 5.01248C65.3554 6.00002 65.0163 6.96883 64.3582 7.70713C63.7001 8.44543 62.7765 8.89317 61.7892 8.95248L65.4443 14.4755H63.4532L60.0002 9.09348ZM60.8522 2.43348H57.3002V7.61048H60.8522C61.2043 7.63374 61.5574 7.5832 61.8889 7.46211C62.2203 7.34102 62.5228 7.15204 62.777 6.90728C63.0312 6.66252 63.2314 6.36737 63.3649 6.04074C63.4984 5.71411 63.5622 5.3632 63.5522 5.01048C63.5613 4.65908 63.4967 4.30967 63.3625 3.98477C63.2283 3.65986 63.0276 3.36665 62.7733 3.12399C62.5189 2.88134 62.2166 2.69463 61.8857 2.57587C61.5549 2.45712 61.2028 2.40896 60.8522 2.43448V2.43348Z" fill="#232323"/>
<path d="M67.1501 0.931641H68.8362V9.17564C68.8362 11.6526 70.1762 13.2166 72.6732 13.2166C75.1702 13.2166 76.5112 11.6526 76.5112 9.17564V0.931641H78.1962V9.19564C78.1962 12.5666 76.3492 14.7186 72.6732 14.7186C68.9972 14.7186 67.1492 12.5456 67.1492 9.21864L67.1501 0.931641Z" fill="#232323"/>
<path d="M92.1211 3.57673L87.5121 14.8457H86.8221L82.2341 3.57673V14.8457H80.5481V1.30273H82.9641L87.1641 11.6177L91.3881 1.30273H93.8041V14.8457H92.118L92.1211 3.57673Z" fill="#232323"/>
</svg>
